REM DISCID DD0CEC0F
REM COMMENT "ExactAudioCopy v1.0b2"
PERFORMER ""
TITLE "24"
FILE " - 24.wav" WAVE
  TRACK 01 AUDIO
    TITLE "01"
    PERFORMER ""
    INDEX 01 00:00:00
  TRACK 02 AUDIO
    TITLE "02"
    PERFORMER ""
    INDEX 01 04:05:50
  TRACK 03 AUDIO
    TITLE "03"
    PERFORMER ""
    INDEX 01 07:25:52
  TRACK 04 AUDIO
    TITLE "04"
    PERFORMER ""
    INDEX 01 10:41:04
  TRACK 05 AUDIO
    TITLE "05"
    PERFORMER ""
    INDEX 01 15:03:22
  TRACK 06 AUDIO
    TITLE "06"
    PERFORMER ""
    INDEX 01 18:27:05
  TRACK 07 AUDIO
    TITLE "07"
    PERFORMER ""
    INDEX 01 23:11:66
  TRACK 08 AUDIO
    TITLE "08"
    PERFORMER ""
    INDEX 01 27:04:14
  TRACK 09 AUDIO
    TITLE "09"
    PERFORMER ""
    INDEX 01 31:47:37
  TRACK 10 AUDIO
    TITLE "10"
    PERFORMER ""
    INDEX 01 35:57:39
  TRACK 11 AUDIO
    TITLE "11"
    PERFORMER ""
    INDEX 01 38:40:28
  TRACK 12 AUDIO
    TITLE "12"
    PERFORMER ""
    INDEX 01 42:55:41
  TRACK 13 AUDIO
    TITLE "13"
    PERFORMER ""
    INDEX 01 46:35:63
  TRACK 14 AUDIO
    TITLE "14"
    PERFORMER ""
    INDEX 01 50:26:34
  TRACK 15 AUDIO
    TITLE "15"
    PERFORMER ""
    INDEX 01 53:13:67
